<?xml version="1.0" standalone="no"?>
<!DOCTYPE svg PUBLIC "-//W3C//DTD SVG 20010904//EN"
 "http://www.w3.org/TR/2001/REC-SVG-20010904/DTD/svg10.dtd">
<svg version="1.0" xmlns="http://www.w3.org/2000/svg"
 width="135.000000pt" height="135.000000pt" viewBox="0 0 135.000000 135.000000"
 preserveAspectRatio="xMidYMid meet">
<metadata>
Created by potrace 1.11, written by Peter Selinger 2001-2013
</metadata>
<g transform="translate(0.000000,135.000000) scale(0.100000,-0.100000)"
fill="#000000" stroke="none">
<path d="M312 1118 c-9 -9 -12 -72 -12 -220 l0 -209 25 -25 25 -24 -45 -22
-45 -22 0 -113 0 -113 315 0 315 0 185 92 185 93 0 112 0 113 -45 0 -44 0 -3
113 -3 112 -120 62 -120 62 -300 1 c-221 0 -304 -3 -313 -12z"/>
<path d="M131 226 c-64 -64 -92 -99 -89 -112 3 -18 19 -19 338 -22 l334 -2 93
92 c142 141 157 132 -247 136 l-335 2 -94 -94z"/>
</g>
</svg>
